<svg width="1236" height="480" viewBox="0 0 1236 480" fill="none" xmlns="http://www.w3.org/2000/svg">
<g opacity="0.35" clip-path="url(#clip0_9494_67881)">
<rect width="1236" height="480" fill="url(#paint0_linear_9494_67881)"/>
<path d="M882.975 -3.89145C882.975 -3.89145 879.987 -7.91315 872.23 -8.58257C864.473 -9.24677 859.824 -5.40742 851.194 -12.771C851.194 -12.771 855.477 -3.93315 864.546 -2.75321C873.613 -1.57327 879.414 -4.83177 884.665 1.16953L882.975 -3.88884V-3.89145Z" fill="#B459FF"/>
<path d="M366.15 -26.3337C358.558 -15.7403 353.504 -11.0362 342.393 -4.2196C345.555 -0.82303 347.133 0.87528 350.295 4.27185C361.402 -2.54734 366.458 -7.25413 374.05 -17.845C370.891 -21.2389 369.312 -22.9398 366.15 -26.3337Z" fill="#FF4F5D"/>
<path d="M962.511 322.104C959.034 324.888 957.518 326.701 955.392 330.616C954.176 329.597 953.569 329.09 952.353 328.071C954.478 324.156 955.991 322.346 959.471 319.559C960.688 320.577 961.295 321.085 962.511 322.104Z" fill="#FFCB00"/>
<path d="M631.28 284.354C629.108 286.841 628.238 288.36 627.201 291.496C626.18 290.912 625.669 290.621 624.648 290.037C625.688 286.904 626.555 285.38 628.73 282.892C629.751 283.476 630.259 283.767 631.283 284.351L631.28 284.354Z" fill="#FFCB00"/>
<path d="M1144.26 9.83057C1145.29 11.9065 1146.12 12.7583 1148.18 13.8315C1147.26 14.7327 1146.8 15.1833 1145.88 16.0871C1143.83 15.0114 1142.99 14.1597 1141.96 12.0837C1142.88 11.1825 1143.34 10.7292 1144.26 9.83057Z" fill="#FF4F5D"/>
<path d="M1191.81 69.1847C1192.42 68.1715 1192.55 67.5802 1192.45 66.4028C1193.09 66.5487 1193.41 66.6243 1194.05 66.7727C1194.15 67.9501 1194.01 68.5439 1193.41 69.5546C1192.77 69.4061 1192.44 69.3358 1191.81 69.1847Z" fill="#FF4F5D"/>
<path d="M1057.46 186.689C1055.26 185.543 1054 185.329 1051.55 185.692C1051.78 184.334 1051.89 183.655 1052.12 182.298C1054.58 181.935 1055.84 182.149 1058.04 183.295C1057.81 184.655 1057.69 185.335 1057.46 186.689Z" fill="#FF4F5D"/>
<path d="M943.4 177.849C944.228 178.713 944.772 179.008 945.955 179.219C945.637 179.805 945.481 180.096 945.168 180.685C943.988 180.472 943.441 180.177 942.61 179.315C942.926 178.729 943.082 178.437 943.4 177.849Z" fill="#FF4F5D"/>
<path d="M986.995 85.5293C990.496 81.7968 991.616 79.4161 992.256 74.342C994.825 75.5506 996.111 76.1549 998.68 77.3609C998.036 82.4401 996.916 84.8182 993.418 88.5534C990.847 87.3448 989.56 86.7405 986.992 85.5293H986.995Z" fill="#FF4F5D"/>
<path d="M1107.87 58.2108C1107.02 56.8277 1106.39 56.2859 1104.88 55.666C1105.47 54.981 1105.76 54.6372 1106.35 53.9521C1107.85 54.5695 1108.48 55.1139 1109.33 56.497C1108.75 57.182 1108.46 57.5258 1107.87 58.2108Z" fill="#FF4F5D"/>
<path d="M1101.67 96.331C1096.48 96.5967 1093.98 97.5474 1089.93 100.806C1088.9 98.11 1088.39 96.7634 1087.36 94.0649C1091.41 90.8064 1093.91 89.853 1099.1 89.5925C1100.13 92.2858 1100.64 93.6351 1101.67 96.331H1101.67Z" fill="#FF4F5D"/>
<path d="M987.153 252.201C985.895 253.774 985.528 254.745 985.429 256.756C984.384 256.36 983.861 256.162 982.816 255.769C982.91 253.756 983.277 252.787 984.541 251.213C985.583 251.609 986.109 251.805 987.153 252.203V252.201Z" fill="#FF4F5D"/>
<path d="M1039.96 129.627C1039.43 128.179 1038.95 127.554 1037.68 126.684C1038.35 126.16 1038.69 125.903 1039.37 125.376C1040.64 126.244 1041.12 126.872 1041.64 128.322C1040.97 128.846 1040.63 129.106 1039.96 129.627Z" fill="#FF4F5D"/>
<path d="M272 204.686C273.341 203.516 273.816 202.732 274.217 201C275.061 201.508 275.482 201.763 276.332 202.271C275.931 204.003 275.459 204.787 274.12 205.957C273.274 205.449 272.849 205.191 272.003 204.683L272 204.686Z" fill="#FF4F5D"/>
<path d="M224 120.765C228.41 117.512 230.051 115.22 231.715 110C234.187 111.771 235.419 112.657 237.894 114.428C236.232 119.648 234.591 121.937 230.176 125.191C227.704 123.42 226.472 122.534 224 120.765Z" fill="#FF4F5D"/>
<path d="M568.828 255.196C567.625 254.623 566.942 254.529 565.627 254.771C565.723 254.037 565.775 253.667 565.874 252.932C567.187 252.69 567.87 252.784 569.076 253.36C568.979 254.094 568.93 254.464 568.828 255.196Z" fill="#FF4F5D"/>
<path d="M583.621 257.553C584.52 255.899 584.694 254.941 584.452 253.076C585.478 253.266 585.991 253.36 587.018 253.553C587.268 255.42 587.091 256.374 586.192 258.03C585.166 257.84 584.653 257.744 583.621 257.553Z" fill="#FF4F5D"/>
<path d="M819.003 34.3837C822.886 33.7377 824.684 32.8053 827.45 30C828.455 31.9405 828.958 32.9095 829.963 34.85C827.2 37.6527 825.402 38.5852 821.516 39.2312C820.513 37.2932 820.008 36.3242 819 34.3837H819.003Z" fill="#FF4F5D"/>
<path d="M226.929 254.069C226.565 252.86 226.195 252.326 225.189 251.56C225.765 251.162 226.054 250.961 226.63 250.562C227.633 251.326 228.005 251.862 228.37 253.071C227.794 253.469 227.505 253.67 226.929 254.069Z" fill="#FF4F5D"/>
<path d="M182.375 162.022C183.479 164.687 184.438 165.818 186.894 167.328C185.677 168.368 185.068 168.889 183.849 169.925C181.395 168.414 180.432 167.284 179.327 164.619C180.544 163.58 181.156 163.062 182.375 162.022Z" fill="#FF4F5D"/>
<path d="M102.173 141.57C98.8133 140.427 96.9848 140.4 93.5908 141.45C93.6169 139.478 93.6325 138.494 93.6611 136.525C97.0551 135.475 98.881 135.504 102.244 136.647C102.215 138.619 102.202 139.603 102.173 141.573V141.57Z" fill="#FF4F5D"/>
<path d="M122.987 43.8276C126.629 40.194 127.832 37.8393 128.647 32.7627C131.19 34.0651 132.458 34.7136 134.998 36.0134C134.182 41.09 132.976 43.4421 129.338 47.0757C126.795 45.7759 125.527 45.1247 122.987 43.825V43.8276Z" fill="#FF4F5D"/>
<path d="M515.929 26.4355C514.116 31.3897 514.017 34.1013 515.463 39.1779C512.538 39.0711 511.071 39.019 508.149 38.9096C506.706 33.8356 506.805 31.1214 508.612 26.1672C511.537 26.274 513.001 26.3261 515.929 26.4355Z" fill="#FF4F5D"/>
<path d="M193.443 257.595C192.966 252.537 191.932 250.135 188.577 246.319C191.166 245.202 192.461 244.642 195.053 243.527C198.405 247.345 199.444 249.744 199.918 254.803C197.329 255.92 196.034 256.478 193.445 257.595H193.443Z" fill="#FF4F5D"/>
<path d="M581.062 473.923C577.426 475.39 575.884 476.684 573.803 480C572.409 478.336 571.709 477.5 570.312 475.833C572.396 472.514 573.941 471.22 577.574 469.756C578.971 471.42 579.669 472.256 581.062 473.923Z" fill="#FF4F5D"/>
<path d="M364.256 282.835C366.764 282.348 367.916 281.712 369.658 279.85C370.343 281.09 370.69 281.71 371.375 282.952C369.627 284.815 368.478 285.453 365.972 285.937C365.287 284.695 364.944 284.078 364.258 282.835H364.256Z" fill="#FF4F5D"/>
<path d="M938.867 464.366C934.733 469.19 933.48 472.209 932.967 478.536C929.711 477.182 928.083 476.507 924.83 475.15C925.346 468.818 926.601 465.802 930.73 460.975C933.986 462.332 935.611 463.009 938.864 464.364L938.867 464.366Z" fill="#FF4F5D"/>
<path d="M736.019 32.3276C732.195 28.4153 729.702 27.1051 724.311 26.1804C725.725 23.4923 726.428 22.1483 727.84 19.4602C733.232 20.3849 735.722 21.6951 739.546 25.6074C738.136 28.2955 737.428 29.6395 736.019 32.3276Z" fill="#FF4F5D"/>
<path d="M619.599 47.4428C623.361 51.2014 625.799 52.4465 631.05 53.28C629.708 55.9081 629.039 57.2209 627.7 59.8517C622.449 59.0156 620.011 57.7731 616.247 54.0119C617.591 51.3811 618.261 50.071 619.599 47.4402V47.4428Z" fill="#FF4F5D"/>
<path d="M181.709 326.644C179.917 326.337 178.995 326.472 177.362 327.277C177.219 326.279 177.148 325.779 177 324.782C178.631 323.979 179.555 323.847 181.35 324.149C181.493 325.149 181.566 325.649 181.709 326.647V326.644Z" fill="#FF4F5D"/>
<path d="M1153.81 105.408C1153.99 101.996 1153.54 100.298 1151.68 97.4276C1153.51 96.9379 1154.43 96.6931 1156.26 96.2034C1158.11 99.0738 1158.57 100.769 1158.39 104.184C1156.55 104.674 1155.64 104.919 1153.81 105.406V105.408Z" fill="#FF4F5D"/>
<path d="M562.379 55.6532C556.693 53.8012 553.619 53.796 547.931 55.6323C547.931 52.3165 547.936 50.6599 547.941 47.3388C553.632 45.5025 556.703 45.5077 562.39 47.3571C562.384 50.6729 562.384 52.3348 562.379 55.6506V55.6532Z" fill="#FFCB00"/>
<path d="M520.727 292.428C520.292 295.504 520.568 297.083 522.021 299.831C520.323 300.128 519.471 300.274 517.773 300.573C516.317 297.828 516.043 296.252 516.478 293.173C518.177 292.876 519.028 292.725 520.727 292.428Z" fill="#FF4F5D"/>
<path d="M685.987 46.5518C683.187 45.8746 681.71 45.984 679.048 47.078C678.928 45.4839 678.866 44.6868 678.746 43.0928C681.411 41.9988 682.888 41.8868 685.688 42.5666C685.807 44.1607 685.867 44.9551 685.99 46.5492L685.987 46.5518Z" fill="#FFCB00"/>
<path d="M875.796 332.169C880.216 335.917 882.975 337.047 888.752 337.49C887.53 340.465 886.918 341.952 885.696 344.927C879.919 344.486 877.163 343.353 872.743 339.605C873.965 336.628 874.577 335.143 875.799 332.169H875.796Z" fill="#FF4F5D"/>
<path d="M588.182 1.61523C589.948 5.61871 591.443 7.29355 595.22 9.49715C593.409 11.1147 592.506 11.9248 590.695 13.5397C586.921 11.3361 585.421 9.66126 583.657 5.66039C585.465 4.04285 586.371 3.23538 588.182 1.61523Z" fill="#FF4F5D"/>
<path d="M372.813 348.38C371.291 346.166 370.195 345.322 367.663 344.429C368.575 343.244 369.025 342.655 369.932 341.47C372.464 342.369 373.56 343.21 375.081 345.421C374.17 346.604 373.719 347.195 372.813 348.38Z" fill="#FF4F5D"/>
<path d="M293.735 412.449C289.14 408.747 286.306 407.669 280.417 407.37C281.581 404.309 282.167 402.78 283.332 399.719C289.221 400.022 292.058 401.103 296.652 404.799C295.485 407.857 294.902 409.388 293.735 412.446V412.449Z" fill="#FF4F5D"/>
<path d="M187.635 477.838C185.921 472.272 184.199 469.818 179.547 466.317C182.191 464.46 183.511 463.53 186.158 461.673C190.812 465.174 192.534 467.625 194.248 473.194C191.604 475.054 190.281 475.981 187.635 477.838Z" fill="#FF4F5D"/>
<path d="M120.745 -10.2859C122.032 -6.3293 123.292 -4.59716 126.655 -2.15393C124.79 -0.794256 123.857 -0.117019 121.987 1.24005C118.622 -1.20319 117.364 -2.93533 116.077 -6.89192C117.942 -8.24898 118.877 -8.92882 120.745 -10.2859Z" fill="#FFCB00"/>
<path d="M149.34 218.613C150.553 219.28 151.254 219.41 152.629 219.238C152.486 219.993 152.416 220.374 152.267 221.129C150.892 221.301 150.191 221.168 148.978 220.501C149.121 219.746 149.194 219.368 149.34 218.613Z" fill="#FF4F5D"/>
<path d="M775.561 353.605C776.816 355.692 777.764 356.512 780.002 357.463C779.116 358.484 778.673 358.995 777.79 360.013C775.548 359.062 774.602 358.242 773.347 356.156C774.232 355.137 774.675 354.627 775.561 353.605Z" fill="#01B5D6"/>
<path d="M854.057 284.26C856.198 282.809 857.016 281.757 857.899 279.324C859.032 280.207 859.599 280.647 860.733 281.53C859.85 283.966 859.032 285.015 856.888 286.469C855.755 285.586 855.187 285.146 854.057 284.263V284.26Z" fill="#01B5D6"/>
<path d="M303.989 89.1875C300.416 85.4706 298.077 84.2203 293 83.3087C294.349 80.7847 295.026 79.524 296.373 77C301.45 77.9117 303.791 79.1645 307.365 82.8762C306.016 85.4028 305.341 86.6636 303.989 89.1875Z" fill="#01B5D6"/>
<path d="M1079.16 199.148C1079.17 197.035 1078.83 196.004 1077.6 194.287C1078.72 193.933 1079.28 193.753 1080.39 193.396C1081.63 195.11 1081.96 196.144 1081.95 198.254C1080.83 198.614 1080.27 198.791 1079.16 199.148Z" fill="#01B5D6"/>
<path d="M1136.49 48.1773C1131.99 53.2279 1130.59 56.4135 1129.91 63.1441C1126.47 61.6308 1124.76 60.8755 1121.32 59.3621C1122 52.6341 1123.4 49.4458 1127.91 44.3953C1131.34 45.9086 1133.06 46.6666 1136.49 48.1773Z" fill="#01B5D6"/>
<path d="M1099.6 13.5059C1102.53 17.0301 1104.53 18.2881 1108.98 19.4186C1107.62 21.5701 1106.94 22.6484 1105.58 24.7999C1101.14 23.6669 1099.14 22.4088 1096.21 18.8846C1097.56 16.7331 1098.24 15.6548 1099.6 13.5059H1099.6Z" fill="#01B5D6"/>
<path d="M1081.95 151.129C1080.18 152.351 1079.51 153.226 1078.8 155.25C1077.86 154.528 1077.39 154.169 1076.44 153.448C1077.15 151.424 1077.82 150.546 1079.58 149.324C1080.53 150.048 1081 150.408 1081.95 151.129Z" fill="#01B5D6"/>
<path d="M339.81 12.9353C341.871 17.7619 343.645 19.7962 348.146 22.4973C345.95 24.4117 344.851 25.3676 342.657 27.2795C338.156 24.5784 336.383 22.5441 334.322 17.7176C336.518 15.8031 337.615 14.8472 339.813 12.9353H339.81Z" fill="#01B5D6"/>
<path d="M112.003 233.896C114.068 228.52 114.227 225.561 112.745 220C115.936 220.169 117.53 220.255 120.721 220.425C122.203 225.988 122.044 228.947 119.976 234.321C116.787 234.151 115.191 234.066 112 233.896H112.003Z" fill="#01B5D6"/>
<path d="M1159.01 155.974C1165.16 157.175 1168.36 156.787 1174.04 154.146C1174.46 157.6 1174.67 159.324 1175.09 162.778C1169.41 165.416 1166.21 165.805 1160.06 164.604C1159.64 161.15 1159.43 159.426 1159.01 155.974Z" fill="#01B5D6"/>
<path d="M1067.35 255.204C1065.66 257.798 1065.24 259.34 1065.38 262.437C1063.72 261.984 1062.89 261.76 1061.23 261.309C1061.08 258.21 1061.5 256.67 1063.2 254.073C1064.86 254.524 1065.69 254.751 1067.35 255.204Z" fill="#01B5D6"/>
<path d="M442.419 338.644C441.384 334.112 440.158 332.062 436.662 328.999C438.876 327.676 439.986 327.017 442.197 325.693C445.695 328.757 446.92 330.809 447.956 335.341C445.742 336.662 444.633 337.323 442.419 338.644Z" fill="#01B5D6"/>
<path d="M414.196 33.8173C413.063 29.2617 411.787 27.2144 408.197 24.1929C410.406 22.815 411.513 22.1273 413.722 20.7468C417.311 23.7709 418.588 25.8182 419.721 30.3739C417.509 31.7518 416.407 32.4421 414.193 33.8173H414.196Z" fill="#01B5D6"/>
<path d="M1056.79 53.2516C1052.43 50.8682 1049.92 50.3915 1045 51.0167C1045.51 48.3104 1045.77 46.9559 1046.28 44.2496C1051.21 43.6245 1053.72 44.1037 1058.07 46.487C1057.56 49.1933 1057.3 50.5426 1056.79 53.2516H1056.79Z" fill="#01B5D6"/>
<path d="M276.964 304.626C280.246 305.824 282.04 305.887 285.4 304.933C285.33 306.869 285.296 307.84 285.226 309.776C281.866 310.734 280.071 310.669 276.789 309.471C276.857 307.535 276.893 306.564 276.964 304.629V304.626Z" fill="#01B5D6"/>
<path d="M100.29 83.0208C106.768 85.8677 110.391 86.2298 117.307 84.7295C116.916 88.6366 116.721 90.5901 116.327 94.4972C109.412 95.9975 105.791 95.6329 99.3105 92.7885C99.7065 88.8814 99.9018 86.9278 100.293 83.0208H100.29Z" fill="#01B5D6"/>
<path d="M943.667 32.509C939.236 31.7797 936.952 32.1287 932.938 34.1396C932.56 31.6755 932.372 30.446 932 27.9819C936.016 25.9685 938.298 25.6221 942.734 26.3488C943.107 28.8129 943.294 30.0449 943.667 32.509Z" fill="#01B5D6"/>
<path d="M998.244 200.377C1000.05 197.189 1000.43 195.35 1000.02 191.711C1002.01 192.122 1003.01 192.326 1005 192.735C1005.4 196.371 1005.02 198.215 1003.22 201.398C1001.23 200.989 1000.23 200.783 998.244 200.377Z" fill="url(#paint1_linear_9494_67881)"/>
<path d="M1138.4 238.229C1144.04 236.997 1146.61 235.497 1150.46 231.183C1152.07 233.952 1152.88 235.335 1154.5 238.107C1150.65 242.417 1148.09 243.915 1142.44 245.152C1140.83 242.381 1140.02 240.998 1138.4 238.229Z" fill="url(#paint2_linear_9494_67881)"/>
<path d="M878.02 51.6683C877.254 44.6147 875.756 41.2885 871 36.0321C874.589 34.4198 876.384 33.6123 879.976 32C884.735 37.259 886.23 40.5878 886.998 47.6362C883.406 49.2485 881.614 50.0534 878.02 51.6683Z" fill="url(#paint3_linear_9494_67881)"/>
<path d="M666.017 -0.0935059C669.025 5.84528 671.44 8.27284 677.36 11.3152C674.74 13.9199 673.43 15.2249 670.809 17.827C664.889 14.7847 662.477 12.3597 659.466 6.41572C662.086 3.81098 663.396 2.51123 666.017 -0.0935059Z" fill="url(#paint4_linear_9494_67881)"/>
<path d="M214 56.4439C221.085 56.3735 224.541 55.2145 230.238 51C231.488 54.7248 232.113 56.5898 233.361 60.3197C227.667 64.5342 224.211 65.6933 217.123 65.7636C215.873 62.0362 215.25 60.1738 214 56.4439Z" fill="url(#paint5_linear_9494_67881)"/>
<path d="M235.03 1.70386C235.061 6.15534 235.785 8.32246 238.421 11.9092C236.08 12.688 234.907 13.0761 232.563 13.8575C229.927 10.2734 229.206 8.10107 229.172 3.65219C231.514 2.87338 232.683 2.48267 235.027 1.70386H235.03Z" fill="url(#paint6_linear_9494_67881)"/>
</g>
<defs>
<linearGradient id="paint0_linear_9494_67881" x1="618" y1="0" x2="618" y2="480" gradientUnits="userSpaceOnUse">
<stop stop-color="white"/>
<stop offset="1" stop-color="white" stop-opacity="0"/>
</linearGradient>
<linearGradient id="paint1_linear_9494_67881" x1="998.244" y1="196.556" x2="1005.14" y2="196.556" gradientUnits="userSpaceOnUse">
<stop stop-color="#CE38BF"/>
<stop offset="0.73" stop-color="#E051CA"/>
<stop offset="1" stop-color="#E85CCF"/>
</linearGradient>
<linearGradient id="paint2_linear_9494_67881" x1="1138.4" y1="238.169" x2="1154.5" y2="238.169" gradientUnits="userSpaceOnUse">
<stop stop-color="#CE38BF"/>
<stop offset="0.73" stop-color="#E051CA"/>
<stop offset="1" stop-color="#E85CCF"/>
</linearGradient>
<linearGradient id="paint3_linear_9494_67881" x1="875.683" y1="31.6718" x2="883.154" y2="50.7228" gradientUnits="userSpaceOnUse">
<stop stop-color="#CE38BF"/>
<stop offset="0.73" stop-color="#E051CA"/>
<stop offset="1" stop-color="#E85CCF"/>
</linearGradient>
<linearGradient id="paint4_linear_9494_67881" x1="660.268" y1="1.20365" x2="678.944" y2="21.0022" gradientUnits="userSpaceOnUse">
<stop stop-color="#CE38BF"/>
<stop offset="0.73" stop-color="#E051CA"/>
<stop offset="1" stop-color="#E85CCF"/>
</linearGradient>
<linearGradient id="paint5_linear_9494_67881" x1="214" y1="58.3818" x2="233.361" y2="58.3818" gradientUnits="userSpaceOnUse">
<stop stop-color="#CE38BF"/>
<stop offset="0.73" stop-color="#E051CA"/>
<stop offset="1" stop-color="#E85CCF"/>
</linearGradient>
<linearGradient id="paint6_linear_9494_67881" x1="232.753" y1="6.11105" x2="236.66" y2="14.4957" gradientUnits="userSpaceOnUse">
<stop stop-color="#CE38BF"/>
<stop offset="0.73" stop-color="#E051CA"/>
<stop offset="1" stop-color="#E85CCF"/>
</linearGradient>
<clipPath id="clip0_9494_67881">
<rect width="1236" height="480" fill="white"/>
</clipPath>
</defs>
</svg>
